<svg id="icons" xmlns="http://www.w3.org/2000/svg" viewBox="0 0 110 110"><title>blender-smoothie</title><circle cx="55" cy="55" r="55" fill="#ffd147"/><g id="blender-smoothie"><g id="smoothie"><path d="M61.5,57a11,11,0,0,1,22,0" fill="#fff"/><path d="M65,57A11,11,0,0,1,76,46c2,0,8,4.92,8,11" fill="#ffd147"/><polygon points="79.5 85 65.5 85 62.5 61 82.5 61 79.5 85" fill="#fff"/><polygon points="79.5 85 68.5 85 65.5 61 82.5 61 79.5 85" fill="#f2633a"/><polygon points="79.5 85 65.5 85 62.5 61 82.5 61 79.5 85" fill="none" stroke="#6e2a27" stroke-linecap="round" stroke-linejoin="round" stroke-width="2"/><rect x="60" y="57" width="25" height="4" rx="1.96" ry="1.96" fill="#fff"/><path d="M84,61H65a2,2,0,0,1-2-2V59a2,2,0,0,1,2-2H84c1.08,0,1,.92,1,2h0C85,60.08,85.12,61,84,61Z" fill="#ffd147"/><rect x="60" y="57" width="25" height="4" rx="1.96" ry="1.96" fill="none" stroke="#6e2a27" stroke-linecap="round" stroke-linejoin="round" stroke-width="2"/><path d="M61.5,57a11,11,0,0,1,22,0" fill="none" stroke="#6e2a27" stroke-linecap="round" stroke-linejoin="round" stroke-width="2"/><polyline points="73.5 46 76.5 39 82.5 37" fill="none" stroke="#6e2a27" stroke-linecap="round" stroke-linejoin="round" stroke-width="2"/></g><g id="blender"><path d="M39,25H49a0,0,0,0,1,0,0v3a2,2,0,0,1-2,2H41a2,2,0,0,1-2-2V25a0,0,0,0,1,0,0Z" transform="translate(88 55) rotate(-180)" fill="#fff"/><path d="M42,25h7a0,0,0,0,1,0,0v3a2,2,0,0,1-2,2H44a2,2,0,0,1-2-2V25A0,0,0,0,1,42,25Z" transform="translate(91 55) rotate(-180)" fill="#ccd1d9"/><path d="M39,25H49a0,0,0,0,1,0,0v3a2,2,0,0,1-2,2H41a2,2,0,0,1-2-2V25a0,0,0,0,1,0,0Z" transform="translate(88 55) rotate(-180)" fill="none" stroke="#6e2a27" stroke-linecap="round" stroke-linejoin="round" stroke-width="2"/><path d="M32,35H56V34a4,4,0,0,0-4-4H36a4,4,0,0,0-4,4Z" fill="#fff"/><path d="M35,35H56V34a4,4,0,0,0-4-4H39a4,4,0,0,0-4,4Z" fill="#ccd1d9"/><path d="M32,35H56V34a4,4,0,0,0-4-4H36a4,4,0,0,0-4,4Z" fill="none" stroke="#6e2a27" stroke-linecap="round" stroke-linejoin="round" stroke-width="2"/><path d="M61,35H32V60a5,5,0,0,0,5,5H51a5,5,0,0,0,5-5V45.56a6,6,0,0,1,.76-2.91Z" fill="#fff"/><path d="M61,35H35V60a5,5,0,0,0,5,5H50c2.76,0,6-2.24,6-5V46a6.63,6.63,0,0,1,1-3Z" fill="#f2633a"/><polygon points="56 44 35 44 35 35 60 35 56 44" fill="#ffd147"/><path d="M61,35H32V60a5,5,0,0,0,5,5H51a5,5,0,0,0,5-5V45.56a6,6,0,0,1,.76-2.91Z" fill="none" stroke="#6e2a27" stroke-linecap="round" stroke-linejoin="round" stroke-width="2"/><rect x="33" y="65" width="22" height="4" rx="2" ry="2" fill="#fff"/><rect x="36" y="65" width="19" height="4" rx="2" ry="2" fill="#ccd1d9"/><rect x="33" y="65" width="22" height="4" rx="2" ry="2" fill="none" stroke="#6e2a27" stroke-linecap="round" stroke-linejoin="round" stroke-width="2"/><path d="M30,69H58a2,2,0,0,1,2,2v8a6,6,0,0,1-6,6H34a6,6,0,0,1-6-6V71A2,2,0,0,1,30,69Z" transform="translate(88 154) rotate(-180)" fill="#fff"/><path d="M33,69H58a2,2,0,0,1,2,2v8a6,6,0,0,1-6,6H37a6,6,0,0,1-6-6V71a2,2,0,0,1,2-2Z" transform="translate(91 154) rotate(-180)" fill="#ccd1d9"/><path d="M30,69H58a2,2,0,0,1,2,2v8a6,6,0,0,1-6,6H34a6,6,0,0,1-6-6V71A2,2,0,0,1,30,69Z" transform="translate(88 154) rotate(-180)" fill="none" stroke="#6e2a27" stroke-linecap="round" stroke-linejoin="round" stroke-width="2"/><circle cx="44" cy="77" r="4" fill="#fff"/><circle cx="44" cy="77" r="4" fill="none" stroke="#6e2a27" stroke-linecap="round" stroke-linejoin="round" stroke-width="2"/><line x1="44" y1="73" x2="44" y2="77" fill="none" stroke="#6e2a27" stroke-miterlimit="10" stroke-width="2"/><line x1="37" y1="77" x2="31" y2="77" fill="none" stroke="#6e2a27" stroke-miterlimit="10" stroke-width="2"/><line x1="57" y1="77" x2="51" y2="77" fill="none" stroke="#6e2a27" stroke-miterlimit="10" stroke-width="2"/><path d="M32,39H29a4,4,0,0,0-4,4V53a4,4,0,0,0,4,4h3" fill="none" stroke="#6e2a27" stroke-linecap="round" stroke-linejoin="round" stroke-width="2"/><line x1="43" y1="44" x2="39" y2="44" fill="none" stroke="#6e2a27" stroke-linejoin="round" stroke-width="2"/><line x1="43" y1="40" x2="39" y2="40" fill="none" stroke="#6e2a27" stroke-linejoin="round" stroke-width="2"/><line x1="43" y1="52" x2="39" y2="52" fill="none" stroke="#6e2a27" stroke-linejoin="round" stroke-width="2"/><line x1="43" y1="60" x2="39" y2="60" fill="none" stroke="#6e2a27" stroke-linejoin="round" stroke-width="2"/><line x1="43" y1="48" x2="39" y2="48" fill="none" stroke="#6e2a27" stroke-linejoin="round" stroke-width="2"/><line x1="43" y1="56" x2="39" y2="56" fill="none" stroke="#6e2a27" stroke-linejoin="round" stroke-width="2"/></g></g></svg>