<?xml version="1.0" encoding="iso-8859-1"?>
<!-- Generator: Adobe Illustrator 16.0.0, SVG Export Plug-In . SVG Version: 6.00 Build 0)  -->
<!DOCTYPE svg PUBLIC "-//W3C//DTD SVG 1.1//EN" "http://www.w3.org/Graphics/SVG/1.1/DTD/svg11.dtd">
<svg version="1.1" id="Capa_1" xmlns="http://www.w3.org/2000/svg" xmlns:xlink="http://www.w3.org/1999/xlink" x="0px" y="0px"
	 width="79.881px" height="79.882px" viewBox="0 0 79.881 79.882" style="enable-background:new 0 0 79.881 79.882;"
	 xml:space="preserve">
<g>
	<g id="_x32_4">
		<g>
			<path d="M67.524,14.78c-2.087-2.745-5.116-4.516-8.533-4.98l-3.203-0.437C55.66,4.182,51.413,0,46.202,0h-17.66
				c-5.161,0-9.375,4.104-9.579,9.218h-7.698c-0.441,0-0.861,0.188-1.152,0.519c-0.29,0.33-0.426,0.771-0.371,1.209l6.099,48.809
				L9.807,77.859c-0.156,0.469-0.078,0.983,0.213,1.384c0.288,0.401,0.75,0.639,1.245,0.639h43c0.018-0.003,0.042-0.003,0.06,0
				c0.85,0,1.536-0.687,1.536-1.536c0-0.32-0.096-0.617-0.264-0.863l-5.907-17.727l1.457-11.665
				c9.055-0.493,16.662-7.414,17.901-16.506l0.986-7.249C70.499,20.919,69.609,17.525,67.524,14.78z M28.541,3.073h17.66
				c3.471,0,6.316,2.724,6.515,6.145H22.026C22.225,5.797,25.07,3.073,28.541,3.073z M52.133,76.811H13.395l5.119-15.362h28.5
				L52.133,76.811z M46.765,58.375H18.763L13.003,12.29h39.521L46.765,58.375z M67.298,23.965l-0.985,7.248
				c-1.038,7.612-7.293,13.439-14.817,14.084L55.64,12.13l2.979,0.406c2.685,0.366,5.065,1.758,6.706,3.915
				C66.962,18.608,67.666,21.276,67.298,23.965z M45.911,15.459c-0.084-0.136-0.18-0.253-0.32-0.418
				c-0.469-0.675-1.386-0.861-2.082-0.417L27.527,24.753c-0.645,0.409-0.801,1.414-0.489,2.109c0.03,0.066,0.183,0.366,0.222,0.43
				c2.04,3.216,5.528,5.137,9.337,5.137c2.091,0,4.131-0.595,5.903-1.72C47.644,27.451,49.177,20.609,45.911,15.459z M34.449,29
				c-1.521-0.418-2.922-1.259-3.952-2.491l4.428-2.807L34.449,29z M40.857,28.114c-1.026,0.65-2.176,1.025-3.349,1.146l0.563-6.271
				l4.64,3.486C42.194,27.1,41.578,27.658,40.857,28.114z M44.194,23.747l-4.273-3.212l3.915-2.481
				C44.676,19.883,44.763,21.911,44.194,23.747z M28.158,67.593h-6.143c-0.85,0-1.536,0.688-1.536,1.536
				c0,0.85,0.687,1.536,1.536,1.536h6.143c0.849,0,1.535-0.688,1.535-1.536C29.692,68.279,29.005,67.593,28.158,67.593z
				 M31.357,34.498c-5.894,0-10.687,4.795-10.687,10.689c0,5.896,4.793,10.69,10.687,10.69s10.687-4.794,10.687-10.69
				C42.043,39.293,37.25,34.498,31.357,34.498z M31.357,52.807c-4.199,0-7.615-3.416-7.615-7.617c0-4.2,3.416-7.617,7.615-7.617
				c4.199,0,7.615,3.417,7.615,7.617C38.973,49.391,35.557,52.807,31.357,52.807z M30.477,45.582c-1.064,0-1.928,0.863-1.928,1.929
				c0,1.064,0.863,1.929,1.928,1.929s1.928-0.863,1.928-1.929S31.541,45.582,30.477,45.582z"/>
		</g>
	</g>
</g>
<g>
</g>
<g>
</g>
<g>
</g>
<g>
</g>
<g>
</g>
<g>
</g>
<g>
</g>
<g>
</g>
<g>
</g>
<g>
</g>
<g>
</g>
<g>
</g>
<g>
</g>
<g>
</g>
<g>
</g>
</svg>
